<svg width="360" height="360" viewBox="0 0 360 360" fill="none" xmlns="http://www.w3.org/2000/svg">
<path d="M96.0095 78.0576H65.5082L138.179 246.451H168.688L96.0095 78.0576Z" fill="#35495E"/>
<path d="M238.391 217.968C204.566 217.968 177.149 190.551 177.149 156.726C177.149 122.9 204.566 95.4834 238.391 95.4834C266.232 95.4834 289.729 114.062 297.171 139.501L324.341 130.917C313.253 93.9444 278.969 67 238.385 67C200.345 67 167.833 90.6746 154.781 124.09L122.166 208.815L65.5014 78.0576H35L107.678 246.451H138.152H138.179L138.166 246.417L157.627 195.86C172.163 225.807 202.869 246.451 238.391 246.451C278.976 246.451 313.26 219.507 324.348 182.534L297.178 173.95C289.735 199.389 266.232 217.968 238.391 217.968Z" fill="#41B883"/>
<path d="M238.391 189.361C220.367 189.361 205.756 174.75 205.756 156.726C205.756 138.701 220.367 124.09 238.391 124.09C253.44 124.09 266.102 134.275 269.878 148.127L297.178 139.495C289.735 114.062 266.239 95.4767 238.398 95.4767C213.267 95.4767 191.678 110.614 182.232 132.271L182.184 132.169L138.097 246.451H168.599L188.997 192.918C200.14 208.104 218.116 217.961 238.398 217.961C266.239 217.961 289.735 199.382 297.178 173.943L269.878 165.317C266.102 179.176 253.44 189.361 238.391 189.361Z" fill="#35495E"/>
<path d="M97 284.279H98.8811L101.091 289.614L103.307 284.279H105.188L102.035 291.885H100.153L97 284.279Z" fill="#41B883"/>
<path d="M109.313 284.279H111.05V291.885H109.313V284.279Z" fill="#41B883"/>
<path d="M118.007 286.016H115.291V284.279H122.467V286.016H119.751V291.885H118.014V286.016H118.007Z" fill="#41B883"/>
<path d="M126.701 284.279H132.68V286.016H128.438V287.268H132.023V288.896H128.438V290.148H132.68V291.885H126.701V284.279Z" fill="#41B883"/>
<path d="M137.242 284.279H141.264C141.757 284.279 142.208 284.402 142.626 284.641C143.043 284.881 143.371 285.216 143.617 285.633C143.857 286.05 143.98 286.502 143.98 286.994C143.98 287.487 143.857 287.938 143.617 288.355C143.378 288.773 143.043 289.101 142.626 289.347C142.208 289.594 141.757 289.71 141.264 289.71H138.98V291.885H137.242V284.279ZM141.264 287.972C141.538 287.972 141.771 287.877 141.962 287.685C142.154 287.494 142.243 287.261 142.243 286.994C142.243 286.721 142.147 286.488 141.962 286.297C141.771 286.105 141.545 286.016 141.264 286.016H138.98V287.972H141.264V287.972Z" fill="#41B883"/>
<path d="M148.481 284.279H152.503C152.996 284.279 153.447 284.402 153.864 284.641C154.282 284.881 154.61 285.216 154.856 285.633C155.096 286.05 155.219 286.502 155.219 286.994C155.219 287.555 155.061 288.055 154.754 288.513C154.446 288.964 154.042 289.299 153.543 289.505L155.328 291.885H153.153L151.525 289.71H150.218V291.885H148.481V284.279V284.279ZM152.503 287.972C152.777 287.972 153.009 287.877 153.201 287.685C153.392 287.494 153.481 287.261 153.481 286.994C153.481 286.721 153.385 286.488 153.201 286.297C153.009 286.105 152.784 286.016 152.503 286.016H150.218V287.972H152.503V287.972Z" fill="#41B883"/>
<path d="M159.679 284.279H165.657V286.016H161.416V287.268H165V288.896H161.416V290.148H165.657V291.885H159.679V284.279Z" fill="#41B883"/>
<path d="M171.608 291.762C171.123 291.605 170.705 291.379 170.357 291.085C170.008 290.791 169.782 290.435 169.679 290.031L171.362 289.621C171.376 289.682 171.465 289.771 171.615 289.874C171.773 289.977 171.971 290.066 172.224 290.148C172.477 290.23 172.758 290.264 173.065 290.264C173.455 290.264 173.79 290.189 174.057 290.038C174.331 289.888 174.468 289.717 174.468 289.525C174.468 289.429 174.427 289.354 174.351 289.293C174.276 289.231 174.132 289.163 173.914 289.094C173.702 289.019 173.339 288.916 172.833 288.78C172.231 288.622 171.745 288.472 171.383 288.342C171.02 288.212 170.678 287.986 170.37 287.678C170.062 287.37 169.912 286.967 169.912 286.467C169.912 285.989 170.062 285.578 170.357 285.236C170.651 284.894 171.047 284.634 171.533 284.456C172.019 284.279 172.532 284.19 173.065 284.19C173.578 284.19 174.057 284.279 174.502 284.443C174.946 284.614 175.316 284.853 175.61 285.154C175.904 285.455 176.096 285.797 176.178 286.173L174.481 286.543C174.461 286.454 174.386 286.344 174.262 286.214C174.139 286.078 173.975 285.961 173.77 285.859C173.565 285.756 173.332 285.708 173.072 285.708C172.689 285.708 172.361 285.783 172.087 285.934C171.814 286.084 171.677 286.255 171.677 286.447C171.677 286.543 171.718 286.618 171.793 286.68C171.868 286.741 172.012 286.81 172.231 286.878C172.443 286.953 172.799 287.056 173.298 287.193C173.879 287.343 174.379 287.5 174.789 287.658C175.206 287.815 175.583 288.054 175.925 288.383C176.267 288.704 176.438 289.115 176.438 289.614C176.438 290.011 176.328 290.373 176.109 290.702C175.89 291.03 175.569 291.304 175.159 291.529C174.871 291.68 174.543 291.796 174.18 291.885C173.818 291.967 173.448 292.008 173.072 292.008C172.58 291.995 172.094 291.912 171.608 291.762Z" fill="#41B883"/>
<path d="M182.06 291.762C181.575 291.605 181.158 291.379 180.809 291.085C180.46 290.791 180.234 290.435 180.131 290.031L181.814 289.621C181.828 289.682 181.917 289.771 182.067 289.874C182.225 289.977 182.423 290.066 182.676 290.148C182.929 290.23 183.21 290.264 183.517 290.264C183.907 290.264 184.243 290.189 184.509 290.038C184.783 289.888 184.92 289.717 184.92 289.525C184.92 289.429 184.879 289.354 184.803 289.293C184.728 289.231 184.585 289.163 184.366 289.094C184.154 289.019 183.791 288.916 183.285 288.78C182.683 288.622 182.197 288.472 181.835 288.342C181.472 288.212 181.13 287.986 180.822 287.678C180.515 287.37 180.364 286.967 180.364 286.467C180.364 285.989 180.515 285.578 180.809 285.236C181.103 284.894 181.5 284.634 181.985 284.456C182.471 284.279 182.984 284.19 183.517 284.19C184.031 284.19 184.509 284.279 184.954 284.443C185.399 284.614 185.768 284.853 186.062 285.154C186.356 285.455 186.548 285.797 186.63 286.173L184.933 286.543C184.913 286.454 184.838 286.344 184.715 286.214C184.591 286.078 184.427 285.961 184.222 285.859C184.017 285.756 183.784 285.708 183.524 285.708C183.141 285.708 182.813 285.783 182.539 285.934C182.266 286.084 182.129 286.255 182.129 286.447C182.129 286.543 182.17 286.618 182.245 286.68C182.32 286.741 182.464 286.81 182.683 286.878C182.895 286.953 183.251 287.056 183.75 287.193C184.331 287.343 184.831 287.5 185.241 287.658C185.659 287.815 186.035 288.054 186.377 288.383C186.719 288.704 186.89 289.115 186.89 289.614C186.89 290.011 186.78 290.373 186.561 290.702C186.343 291.03 186.021 291.304 185.611 291.529C185.323 291.68 184.995 291.796 184.632 291.885C184.27 291.967 183.901 292.008 183.524 292.008C183.032 291.995 182.546 291.912 182.06 291.762Z" fill="#41B883"/>
<path d="M190.844 287.268H194.106V288.896H190.844V287.268Z" fill="#41B883"/>
<path d="M200.393 291.468C199.757 291.119 199.257 290.64 198.881 290.045C198.505 289.45 198.32 288.793 198.32 288.082C198.32 287.37 198.505 286.721 198.881 286.119C199.257 285.517 199.757 285.045 200.393 284.696C201.029 284.347 201.72 284.169 202.465 284.169C203.129 284.169 203.765 284.313 204.353 284.607C204.948 284.894 205.434 285.298 205.817 285.804L204.429 286.851C204.203 286.563 203.916 286.331 203.567 286.166C203.218 286.002 202.848 285.913 202.459 285.913C202.021 285.913 201.624 286.009 201.255 286.208C200.885 286.406 200.598 286.666 200.379 287.001C200.16 287.336 200.051 287.699 200.051 288.089C200.051 288.479 200.16 288.841 200.379 289.176C200.598 289.511 200.885 289.771 201.255 289.97C201.617 290.168 202.021 290.264 202.459 290.264C202.848 290.264 203.218 290.182 203.567 290.011C203.916 289.847 204.203 289.614 204.429 289.327L205.817 290.373C205.434 290.88 204.942 291.276 204.353 291.57C203.758 291.858 203.129 292.001 202.465 292.001C201.713 291.995 201.022 291.817 200.393 291.468Z" fill="#41B883"/>
<path d="M211.857 291.522C211.324 291.208 210.899 290.791 210.592 290.257C210.277 289.723 210.126 289.142 210.126 288.513V284.272H211.864V288.513C211.864 288.827 211.939 289.115 212.097 289.381C212.254 289.648 212.466 289.86 212.733 290.018C212.999 290.175 213.294 290.25 213.601 290.25C213.916 290.25 214.203 290.175 214.47 290.018C214.737 289.86 214.949 289.648 215.106 289.381C215.264 289.115 215.339 288.821 215.339 288.513V284.272H217.076V288.513C217.076 289.142 216.919 289.723 216.611 290.257C216.297 290.791 215.879 291.215 215.346 291.522C214.812 291.83 214.231 291.988 213.601 291.988C212.972 291.988 212.391 291.837 211.857 291.522Z" fill="#41B883"/>
<path d="M223.144 291.762C222.658 291.605 222.241 291.379 221.892 291.085C221.543 290.791 221.317 290.435 221.215 290.031L222.898 289.621C222.911 289.682 223 289.771 223.151 289.874C223.308 289.977 223.506 290.066 223.759 290.148C224.013 290.23 224.293 290.264 224.601 290.264C224.991 290.264 225.326 290.189 225.593 290.038C225.866 289.888 226.003 289.717 226.003 289.525C226.003 289.429 225.962 289.354 225.887 289.293C225.812 289.231 225.668 289.163 225.449 289.094C225.237 289.019 224.874 288.916 224.368 288.78C223.766 288.622 223.281 288.472 222.918 288.342C222.556 288.212 222.214 287.986 221.906 287.678C221.598 287.37 221.447 286.967 221.447 286.467C221.447 285.989 221.598 285.578 221.892 285.236C222.186 284.894 222.583 284.634 223.069 284.456C223.554 284.279 224.067 284.19 224.601 284.19C225.114 284.19 225.593 284.279 226.037 284.443C226.482 284.614 226.851 284.853 227.145 285.154C227.44 285.455 227.631 285.797 227.713 286.173L226.017 286.543C225.996 286.454 225.921 286.344 225.798 286.214C225.675 286.078 225.511 285.961 225.305 285.859C225.1 285.756 224.868 285.708 224.608 285.708C224.225 285.708 223.896 285.783 223.623 285.934C223.349 286.084 223.212 286.255 223.212 286.447C223.212 286.543 223.253 286.618 223.329 286.68C223.404 286.741 223.547 286.81 223.766 286.878C223.978 286.953 224.334 287.056 224.833 287.193C225.415 287.343 225.914 287.5 226.325 287.658C226.742 287.815 227.118 288.054 227.46 288.383C227.802 288.704 227.973 289.115 227.973 289.614C227.973 290.011 227.864 290.373 227.645 290.702C227.426 291.03 227.104 291.304 226.694 291.529C226.407 291.68 226.078 291.796 225.716 291.885C225.353 291.967 224.984 292.008 224.608 292.008C224.115 291.995 223.63 291.912 223.144 291.762Z" fill="#41B883"/>
<path d="M234.273 286.016H231.558V284.279H238.733V286.016H236.017V291.885H234.28V286.016H234.273Z" fill="#41B883"/>
<path d="M244.417 291.468C243.822 291.119 243.344 290.64 242.995 290.045C242.646 289.45 242.468 288.793 242.468 288.082C242.468 287.37 242.646 286.721 242.995 286.119C243.344 285.523 243.822 285.045 244.417 284.696C245.013 284.347 245.669 284.169 246.381 284.169C247.092 284.169 247.742 284.347 248.344 284.696C248.946 285.045 249.418 285.523 249.767 286.119C250.116 286.714 250.293 287.37 250.293 288.082C250.293 288.793 250.116 289.443 249.767 290.045C249.418 290.647 248.939 291.119 248.344 291.468C247.749 291.817 247.092 291.995 246.381 291.995C245.669 291.995 245.013 291.817 244.417 291.468ZM247.461 289.963C247.797 289.765 248.057 289.505 248.255 289.169C248.453 288.834 248.549 288.472 248.549 288.082C248.549 287.692 248.453 287.329 248.255 286.994C248.057 286.659 247.797 286.399 247.461 286.201C247.126 286.002 246.764 285.907 246.374 285.907C245.984 285.907 245.621 286.002 245.286 286.201C244.951 286.399 244.691 286.659 244.493 286.994C244.294 287.329 244.199 287.692 244.199 288.082C244.199 288.472 244.294 288.834 244.493 289.169C244.691 289.505 244.951 289.765 245.286 289.963C245.621 290.161 245.984 290.257 246.374 290.257C246.764 290.257 247.133 290.154 247.461 289.963Z" fill="#41B883"/>
<path d="M254.788 284.279H256.6L258.762 289.518L261.012 284.279H262.825V291.885H261.088V288.513L259.644 291.885H257.859L256.525 288.65V291.885H254.788V284.279V284.279Z" fill="#41B883"/>
</svg>
